<svg width="18" height="18" viewBox="0 0 18 18" fill="none" xmlns="http://www.w3.org/2000/svg">
<path d="M6.75 1.125C6.45163 1.125 6.16548 1.24353 5.9545 1.4545C5.74353 1.66548 5.625 1.95163 5.625 2.25V2.8125C5.625 2.96168 5.56574 3.10476 5.46025 3.21025C5.35476 3.31574 5.21168 3.375 5.0625 3.375C4.91332 3.375 4.77024 3.31574 4.66475 3.21025C4.55926 3.10476 4.5 2.96168 4.5 2.8125V2.25C4.5 1.65326 4.73705 1.08097 5.15901 0.65901C5.58097 0.237053 6.15326 0 6.75 0H7.3125C7.46168 0 7.60476 0.0592633 7.71025 0.164753C7.81574 0.270242 7.875 0.413316 7.875 0.5625C7.875 0.711684 7.81574 0.854758 7.71025 0.960247C7.60476 1.06574 7.46168 1.125 7.3125 1.125H6.75ZM5.625 11.25C5.625 11.5484 5.74353 11.8345 5.9545 12.0455C6.16548 12.2565 6.45163 12.375 6.75 12.375H7.3125C7.46168 12.375 7.60476 12.4343 7.71025 12.5398C7.81574 12.6452 7.875 12.7883 7.875 12.9375C7.875 13.0867 7.81574 13.2298 7.71025 13.3352C7.60476 13.4407 7.46168 13.5 7.3125 13.5H6.75C6.15326 13.5 5.58097 13.2629 5.15901 12.841C4.73705 12.419 4.5 11.8467 4.5 11.25V10.6875C4.5 10.5383 4.55926 10.3952 4.66475 10.2898C4.77024 10.1843 4.91332 10.125 5.0625 10.125C5.21168 10.125 5.35476 10.1843 5.46025 10.2898C5.56574 10.3952 5.625 10.5383 5.625 10.6875V11.25ZM5.625 5.0625C5.625 4.91332 5.56574 4.77024 5.46025 4.66475C5.35476 4.55926 5.21168 4.5 5.0625 4.5C4.91332 4.5 4.77024 4.55926 4.66475 4.66475C4.55926 4.77024 4.5 4.91332 4.5 5.0625V8.4375C4.5 8.58668 4.55926 8.72976 4.66475 8.83525C4.77024 8.94074 4.91332 9 5.0625 9C5.21168 9 5.35476 8.94074 5.46025 8.83525C5.56574 8.72976 5.625 8.58668 5.625 8.4375V5.0625ZM15.75 1.125C16.0484 1.125 16.3345 1.24353 16.5455 1.4545C16.7565 1.66548 16.875 1.95163 16.875 2.25V2.8125C16.875 2.96168 16.9343 3.10476 17.0398 3.21025C17.1452 3.31574 17.2883 3.375 17.4375 3.375C17.5867 3.375 17.7298 3.31574 17.8352 3.21025C17.9407 3.10476 18 2.96168 18 2.8125V2.25C18 1.65326 17.7629 1.08097 17.341 0.65901C16.919 0.237053 16.3467 0 15.75 0H15.1875C15.0383 0 14.8952 0.0592633 14.7898 0.164753C14.6843 0.270242 14.625 0.413316 14.625 0.5625C14.625 0.711684 14.6843 0.854758 14.7898 0.960247C14.8952 1.06574 15.0383 1.125 15.1875 1.125H15.75ZM15.75 12.375C16.0484 12.375 16.3345 12.2565 16.5455 12.0455C16.7565 11.8345 16.875 11.5484 16.875 11.25V10.6875C16.875 10.5383 16.9343 10.3952 17.0398 10.2898C17.1452 10.1843 17.2883 10.125 17.4375 10.125C17.5867 10.125 17.7298 10.1843 17.8352 10.2898C17.9407 10.3952 18 10.5383 18 10.6875V11.25C18 11.8467 17.7629 12.419 17.341 12.841C16.919 13.2629 16.3467 13.5 15.75 13.5H15.1875C15.0383 13.5 14.8952 13.4407 14.7898 13.3352C14.6843 13.2298 14.625 13.0867 14.625 12.9375C14.625 12.7883 14.6843 12.6452 14.7898 12.5398C14.8952 12.4343 15.0383 12.375 15.1875 12.375H15.75ZM17.4375 4.5C17.2883 4.5 17.1452 4.55926 17.0398 4.66475C16.9343 4.77024 16.875 4.91332 16.875 5.0625V8.4375C16.875 8.58668 16.9343 8.72976 17.0398 8.83525C17.1452 8.94074 17.2883 9 17.4375 9C17.5867 9 17.7298 8.94074 17.8352 8.83525C17.9407 8.72976 18 8.58668 18 8.4375V5.0625C18 4.91332 17.9407 4.77024 17.8352 4.66475C17.7298 4.55926 17.5867 4.5 17.4375 4.5ZM9.5625 0C9.41332 0 9.27024 0.0592633 9.16475 0.164753C9.05926 0.270242 9 0.413316 9 0.5625C9 0.711684 9.05926 0.854758 9.16475 0.960247C9.27024 1.06574 9.41332 1.125 9.5625 1.125H12.9375C13.0867 1.125 13.2298 1.06574 13.3352 0.960247C13.4407 0.854758 13.5 0.711684 13.5 0.5625C13.5 0.413316 13.4407 0.270242 13.3352 0.164753C13.2298 0.0592633 13.0867 0 12.9375 0H9.5625ZM9 12.9375C9 12.7883 9.05926 12.6452 9.16475 12.5398C9.27024 12.4343 9.41332 12.375 9.5625 12.375H12.9375C13.0867 12.375 13.2298 12.4343 13.3352 12.5398C13.4407 12.6452 13.5 12.7883 13.5 12.9375C13.5 13.0867 13.4407 13.2298 13.3352 13.3352C13.2298 13.4407 13.0867 13.5 12.9375 13.5H9.5625C9.41332 13.5 9.27024 13.4407 9.16475 13.3352C9.05926 13.2298 9 13.0867 9 12.9375ZM2.25 4.5H3.375V11.8125C3.375 12.5584 3.67132 13.2738 4.19876 13.8012C4.72621 14.3287 5.44158 14.625 6.1875 14.625H13.5V15.75C13.5 16.3467 13.2629 16.919 12.841 17.341C12.419 17.7629 11.8467 18 11.25 18H3.9375C2.89321 18 1.89169 17.5852 1.15327 16.8467C0.414843 16.1083 0 15.1068 0 14.0625V6.75C0 6.15326 0.237053 5.58097 0.65901 5.15901C1.08097 4.73705 1.65326 4.5 2.25 4.5Z" fill="#A0AEC0"/>
</svg>
