<svg width="18" height="18" viewBox="0 0 18 18" fill="none" xmlns="http://www.w3.org/2000/svg">
<path d="M15.0302 10.8526C15.5627 11.3101 15.1877 12.0826 14.4302 12.0826H8.8877V3.4126H14.4302C15.1877 3.4126 15.5627 4.1926 15.0302 4.6426L12.7727 6.5701C12.0152 7.2151 12.0152 8.2726 12.7727 8.9176L15.0302 10.8526Z" stroke="#A0AEC0" stroke-width="1.5" stroke-linecap="round" stroke-linejoin="round"/>
<path d="M2.72266 8.22705V15.9371" stroke="#A0AEC0" stroke-width="1.5" stroke-linecap="round" stroke-linejoin="round"/>
<path d="M8.11485 10.545H3.48734C3.05984 10.545 2.71484 10.2 2.71484 9.7725V2.835C2.71484 2.4075 3.05984 2.0625 3.48734 2.0625H8.11485C8.54235 2.0625 8.88735 2.4075 8.88735 2.835V9.7725C8.88735 10.2 8.54235 10.545 8.11485 10.545Z" stroke="#A0AEC0" stroke-width="1.5" stroke-linecap="round" stroke-linejoin="round"/>
</svg>
