<svg width="16" height="16" viewBox="0 0 16 16" fill="none" xmlns="http://www.w3.org/2000/svg">
<path d="M7.21746 2.62539C6.95346 2.67272 6.67573 2.80538 6.4048 3.02138L2.09232 6.45872C1.09292 7.25605 1.09292 8.62006 2.09232 9.41673L6.4048 12.8547C7.4888 13.7187 8.67546 13.1607 8.67546 11.7714V10.5834C8.77613 10.5821 8.9088 10.5841 8.9468 10.5834C9.45346 10.5761 9.78413 10.5901 9.96746 10.6047C11.3968 10.7174 12.0615 10.9874 12.8215 11.6881C12.9221 11.7807 13.4721 12.3594 13.5301 12.4167C13.9501 12.8361 14.6755 12.5314 14.6755 11.9381C14.6755 11.8547 14.6755 11.2714 14.6755 11.2714C14.7068 7.58538 13.5475 5.54872 10.0715 5.27138C9.9488 5.26138 9.60213 5.26805 9.0088 5.27138C8.96746 5.27138 8.81746 5.27005 8.67546 5.27138C8.67546 4.78805 8.67546 4.25005 8.67546 4.10472C8.67546 3.06272 8.00946 2.48272 7.21746 2.62539ZM7.34213 3.97805L7.3428 6.60006C7.3428 6.60006 9.89946 6.59938 9.96746 6.60472C12.3281 6.78072 13.1775 7.89472 13.3275 10.3927C12.4808 9.73606 11.5488 9.38805 10.0715 9.27139C9.83147 9.25205 9.47746 9.24206 8.92546 9.25006C8.79346 9.25206 7.3428 9.26673 7.3428 9.26673L7.3528 11.9041L2.92566 8.37539C2.59552 8.11206 2.59552 7.7634 2.92566 7.50006L7.34213 3.97805Z" fill="#A0AEC0"/>
</svg>
