<svg width="18" height="18" viewBox="0 0 18 18" fill="none" xmlns="http://www.w3.org/2000/svg">
<path d="M8.99804 1.46484C8.1693 1.46484 7.49805 2.13609 7.49805 2.96484H3.74805C3.33405 2.96484 2.99805 3.30084 2.99805 3.71484C2.99805 4.12884 3.33405 4.46483 3.74805 4.46483V13.4648C3.74805 15.1073 5.1018 16.4648 6.74805 16.4648H11.248C12.8943 16.4648 14.248 15.1111 14.248 13.4648V4.46483C14.662 4.46483 14.998 4.12884 14.998 3.71484C14.998 3.30084 14.662 2.96484 14.248 2.96484H10.498C10.498 2.13609 9.82679 1.46484 8.99804 1.46484ZM5.24805 4.46483H12.748V13.4648C12.748 14.2876 12.0805 14.9648 11.2713 14.9648L6.74805 14.9415C5.92155 14.9415 5.24805 14.2741 5.24805 13.4648V4.46483ZM7.49805 5.96483C7.08405 5.96483 6.74805 6.30083 6.74805 6.71483V12.7148C6.74805 13.1288 7.08405 13.4648 7.49805 13.4648C7.91205 13.4648 8.24804 13.1288 8.24804 12.7148V6.71483C8.24804 6.30083 7.91205 5.96483 7.49805 5.96483ZM10.498 5.96483C10.084 5.96483 9.74804 6.30083 9.74804 6.71483V12.7148C9.74804 13.1288 10.084 13.4648 10.498 13.4648C10.912 13.4648 11.248 13.1288 11.248 12.7148V6.71483C11.248 6.30083 10.912 5.96483 10.498 5.96483Z" fill="#A0AEC0"/>
</svg>
